<?xml version="1.0" standalone="no"?>
<!DOCTYPE svg PUBLIC "-//W3C//DTD SVG 20010904//EN"
 "http://www.w3.org/TR/2001/REC-SVG-20010904/DTD/svg10.dtd">
<svg version="1.0" xmlns="http://www.w3.org/2000/svg"
 width="920.000000pt" height="920.000000pt" viewBox="0 0 920.000000 920.000000"
 preserveAspectRatio="xMidYMid meet">
<metadata>
Created by potrace 1.14, written by Peter Selinger 2001-2017
</metadata>
<g transform="translate(0.000000,920.000000) scale(0.100000,-0.100000)"
fill="#000000" stroke="none">
<path d="M3590 7685 c-53 -28 -80 -31 -80 -10 0 8 -3 15 -6 15 -16 0 -258
-128 -342 -181 -170 -107 -378 -272 -366 -290 3 -5 -4 -9 -15 -9 -35 0 -54
-43 -59 -135 -4 -78 -2 -87 20 -112 44 -52 108 -34 138 38 7 15 23 35 36 44
13 8 24 24 24 35 0 24 45 56 92 65 26 5 45 18 63 41 14 19 31 34 38 34 16 0
152 70 202 104 28 19 41 36 45 58 4 25 12 34 40 43 23 7 41 22 51 43 9 17 22
39 29 47 7 8 10 21 7 29 -8 19 49 71 113 104 59 29 79 63 38 61 -13 -1 -43
-12 -68 -24z m-270 -335 c0 -5 -4 -10 -10 -10 -5 0 -10 5 -10 10 0 6 5 10 10
10 6 0 10 -4 10 -10z"/>
<path d="M5360 7600 c-24 -8 -98 -41 -130 -59 -32 -17 -16 -42 40 -62 30 -10
62 -19 71 -19 24 0 32 30 13 51 -15 16 -14 19 17 34 24 13 56 17 124 16 72 -1
95 2 105 14 7 9 10 19 6 23 -10 10 -216 12 -246 2z"/>
<path d="M5609 7503 l-41 -37 34 -28 c41 -34 34 -35 -38 -3 -65 29 -110 32
-135 9 -13 -12 -25 -13 -51 -6 -19 5 -47 5 -66 0 -20 -5 -39 -5 -52 2 -12 7
-27 7 -37 2 -32 -17 -113 -21 -113 -6 0 16 -34 27 -60 19 -13 -4 -20 -15 -20
-31 0 -27 -24 -33 -37 -9 -5 8 -35 20 -68 26 -33 6 -96 22 -140 35 -102 31
-217 32 -333 4 -104 -25 -107 -27 -179 -99 -33 -33 -87 -73 -122 -91 -80 -40
-111 -70 -111 -108 0 -48 20 -92 45 -98 21 -5 22 -7 9 -32 -8 -15 -14 -37 -14
-49 0 -13 -8 -24 -22 -29 -12 -3 -44 -24 -71 -46 l-50 -39 -21 34 c-12 19 -31
49 -44 68 -14 21 -21 44 -19 62 3 21 -3 33 -21 47 -24 19 -24 19 -75 -10 -44
-26 -52 -34 -52 -60 0 -23 -6 -32 -27 -41 -59 -24 -113 -113 -91 -148 16 -26
46 -24 88 8 l40 29 10 -31 c11 -34 22 -37 83 -23 51 12 38 -9 -19 -30 -29 -11
-58 -29 -66 -41 -14 -21 -13 -23 24 -40 34 -17 38 -22 37 -56 -2 -58 -15 -67
-106 -67 -70 0 -82 -3 -103 -25 -20 -19 -25 -34 -25 -78 0 -31 -6 -61 -15 -73
-31 -42 -6 -114 40 -114 15 0 29 -9 36 -21 10 -19 5 -27 -49 -78 -61 -57 -82
-99 -82 -163 0 -21 -9 -34 -39 -52 -49 -31 -67 -57 -126 -181 -47 -98 -47
-101 -40 -165 12 -99 9 -125 -20 -174 -19 -33 -25 -53 -21 -78 3 -18 8 -51 11
-73 4 -31 15 -49 50 -80 25 -23 53 -61 64 -87 23 -54 112 -170 150 -194 23
-16 25 -16 44 7 18 22 27 24 106 24 80 0 89 2 135 33 28 17 58 32 67 32 20 0
50 -35 69 -79 17 -41 45 -48 82 -21 l30 22 21 -20 c18 -18 19 -25 9 -64 -6
-24 -13 -73 -16 -110 l-5 -67 49 -58 c59 -69 106 -153 115 -208 4 -22 18 -59
31 -82 30 -52 30 -61 -1 -103 -31 -42 -33 -107 -6 -165 10 -22 48 -80 84 -128
58 -77 87 -134 87 -174 0 -6 23 -32 51 -56 29 -25 64 -67 78 -94 33 -61 81
-87 131 -73 19 6 61 10 92 10 54 0 60 3 116 50 77 63 106 103 98 135 -5 20 0
29 29 47 39 26 44 51 19 99 -26 52 -16 79 47 121 76 50 91 88 82 206 -5 67
-12 95 -30 123 -13 19 -30 67 -38 104 l-14 70 28 45 c15 25 46 77 69 117 26
43 63 90 97 118 42 36 56 55 61 83 3 21 22 72 41 116 36 79 52 170 39 220 -9
37 -51 34 -135 -9 -79 -41 -106 -44 -115 -12 -12 44 -7 57 19 57 33 0 78 21
139 65 26 19 57 35 68 35 11 0 34 11 52 25 18 14 37 25 42 25 28 0 84 64 109
127 15 37 34 85 43 106 21 52 9 82 -53 129 -28 21 -54 47 -59 58 -13 28 -22
25 -66 -22 l-40 -41 -40 59 c-22 32 -40 64 -40 70 0 6 -13 28 -30 49 -32 40
-40 85 -16 85 8 0 18 -10 22 -22 4 -13 34 -51 67 -85 60 -62 90 -76 114 -52
18 18 41 3 59 -35 21 -43 51 -57 137 -64 56 -4 71 -2 88 14 20 18 21 17 74
-40 31 -33 55 -68 55 -80 0 -27 36 -86 53 -86 7 0 18 5 25 12 7 7 12 9 12 4 0
-79 72 -322 130 -436 16 -32 32 -78 36 -102 11 -70 34 -87 57 -41 l14 26 7
-46 c8 -50 25 -71 49 -61 40 15 23 139 -21 159 -12 5 -20 15 -18 21 3 7 7 65
11 130 6 113 8 120 34 144 15 14 47 62 71 108 43 80 45 82 81 82 21 0 39 6 42
13 6 16 7 14 54 -65 33 -54 41 -80 46 -137 11 -108 24 -126 52 -71 9 17 19 30
23 30 11 0 35 -200 33 -272 -2 -36 3 -65 13 -80 13 -20 58 -199 52 -205 -1 -2
-13 16 -26 40 -33 60 -60 87 -87 87 -32 0 -29 -21 12 -81 35 -51 51 -98 75
-212 6 -32 22 -70 36 -86 13 -16 33 -49 43 -75 19 -44 28 -51 59 -47 8 1 22
-5 32 -14 27 -25 74 -16 78 14 5 33 -21 51 -75 51 -36 0 -44 4 -57 27 -12 23
-12 33 0 66 18 51 18 72 -2 88 -8 7 -24 30 -35 51 -16 32 -17 37 -3 31 26 -10
33 16 19 66 -7 25 -16 64 -20 86 -4 22 -24 77 -45 121 -25 54 -35 86 -29 95 5
8 9 31 9 52 0 20 5 37 10 37 6 0 29 -38 50 -85 21 -47 44 -85 50 -85 5 0 10 4
10 8 0 5 17 28 37 52 36 41 37 46 38 119 0 68 -4 84 -37 151 -39 77 -46 116
-28 151 20 37 30 20 23 -41 -4 -47 -2 -65 11 -85 15 -22 20 -24 33 -14 11 10
14 25 9 59 -13 101 -15 93 33 102 56 10 66 19 86 79 9 28 28 70 42 95 23 40
25 54 20 109 -3 34 -18 92 -33 129 -26 66 -26 67 -8 101 15 28 16 38 6 59 -7
15 -20 26 -32 26 -11 0 -27 12 -36 26 -16 24 -16 26 4 47 l22 21 0 -21 c0 -25
25 -49 35 -33 13 21 23 8 29 -40 4 -33 11 -50 21 -50 17 0 24 -23 23 -73 0
-45 18 -73 38 -56 23 19 26 66 9 126 -10 32 -18 83 -19 113 -1 47 -12 77 -82
215 -212 423 -547 802 -932 1057 -57 37 -107 68 -112 68 -4 0 -28 -9 -54 -20
-37 -17 -53 -19 -81 -11 -37 10 -60 -3 -34 -20 8 -5 10 -9 6 -9 -4 0 -19 7
-32 16 -28 18 -55 13 -55 -11 0 -22 -17 -18 -23 5 -6 23 -32 27 -41 5 -3 -8 4
-36 15 -61 18 -44 18 -48 3 -65 -10 -11 -22 -19 -27 -19 -6 0 -3 8 6 18 21 23
21 41 2 66 -8 11 -15 30 -15 41 0 23 -19 44 -57 64 -20 10 -28 7 -64 -26z
m365 -79 c5 -14 4 -15 -9 -4 -17 14 -19 20 -6 20 5 0 12 -7 15 -16z m-123 -25
c11 -5 17 -14 14 -20 -7 -11 -45 7 -45 21 0 13 7 13 31 -1z m-914 -42 c-2 -7
-9 -12 -15 -11 -7 1 -28 2 -47 3 -53 2 -42 16 16 18 36 2 49 -1 46 -10z m-387
-12 c0 -5 -55 -35 -65 -35 -3 0 -1 9 5 20 9 17 60 30 60 15z m-66 -153 c9 -9
20 -10 37 -3 26 9 70 14 104 11 l20 -1 -20 -9 c-11 -5 -38 -9 -60 -9 -48 -1
-70 -14 -62 -35 5 -12 0 -16 -18 -16 -32 0 -64 -32 -72 -70 -5 -27 -9 -30 -45
-30 -21 0 -51 -6 -66 -13 -32 -16 -122 -11 -122 7 0 8 12 11 35 8 44 -5 121
31 131 61 4 12 17 36 30 53 27 35 31 72 9 80 -24 10 -17 21 23 37 l37 15 13
-37 c7 -20 18 -42 26 -49z m261 38 c3 -5 1 -10 -4 -10 -6 0 -11 5 -11 10 0 6
2 10 4 10 3 0 8 -4 11 -10z m-556 -142 c1 -3 -8 -4 -19 -1 -23 6 -25 14 -8 31
10 10 14 9 20 -5 3 -10 7 -21 7 -25z m-419 -146 c0 -5 -9 -17 -20 -27 -20 -18
-25 -11 -14 19 6 17 34 23 34 8z m1586 -217 c24 -37 13 -57 -24 -43 -33 13
-60 6 -68 -17 -6 -14 17 -48 73 -110 12 -14 19 -32 17 -42 -3 -10 4 -40 15
-67 41 -95 22 -129 -59 -105 -39 12 -90 58 -90 81 0 5 14 22 30 36 38 33 38
57 1 77 -35 18 -76 69 -92 114 -15 43 11 86 47 77 17 -5 36 1 61 18 41 28 61
23 89 -19z m-606 -35 c26 -51 49 -51 89 -2 25 30 30 33 31 17 0 -13 19 -32 51
-53 44 -29 95 -89 84 -100 -2 -2 -21 -8 -41 -12 -30 -7 -48 -5 -83 11 -51 22
-106 24 -141 4 -14 -8 -44 -14 -66 -15 -37 0 -42 3 -47 27 -3 18 3 37 23 64
15 21 33 52 40 69 17 41 36 38 60 -10z m-476 -100 c21 -23 35 -44 32 -47 -12
-13 -106 77 -106 101 0 14 38 -15 74 -54z m-167 -27 c14 -29 33 -45 76 -66 76
-37 111 -103 41 -77 -37 15 -74 5 -74 -19 0 -21 54 -81 74 -81 16 0 36 21 36
38 0 8 11 25 25 38 14 13 25 32 25 42 0 10 9 27 20 37 19 17 20 17 45 -36 14
-30 25 -61 25 -69 0 -19 28 -60 40 -60 16 0 72 53 81 78 7 18 5 31 -7 49 -14
23 -14 26 2 44 27 30 34 23 34 -32 0 -48 3 -54 47 -95 l47 -43 98 2 98 3 0
-26 c0 -40 -28 -125 -49 -152 -19 -22 -20 -23 -49 -6 -25 15 -35 16 -62 6 -28
-9 -34 -8 -42 6 -7 12 -24 16 -71 16 -46 0 -68 5 -87 20 -38 30 -59 24 -108
-30 -25 -27 -51 -50 -57 -50 -7 0 -30 14 -51 31 -22 17 -61 41 -89 53 -63 29
-81 48 -60 66 21 18 19 69 -6 109 -17 28 -24 32 -47 27 -15 -4 -63 -10 -108
-15 -73 -7 -89 -12 -165 -59 -47 -29 -95 -52 -108 -52 -35 0 -20 22 26 37 61
21 113 75 113 119 0 30 6 38 44 62 24 15 50 40 58 57 12 27 17 30 53 27 31 -2
45 2 59 17 28 31 52 26 73 -16z m768 -650 c10 -27 28 -70 41 -98 12 -27 30
-74 39 -102 9 -29 37 -81 62 -115 56 -76 69 -107 78 -183 l6 -60 -34 38 c-38
42 -49 66 -244 555 -3 7 3 12 15 12 15 0 25 -12 37 -47z m-5 -1184 c0 -25 -17
-59 -30 -59 -11 0 -14 63 -3 73 14 14 33 6 33 -14z"/>
<path d="M4029 6496 c-17 -37 -4 -78 24 -74 47 7 55 89 9 96 -15 2 -25 -4 -33
-22z"/>
<path d="M3869 6459 c-7 -14 -8 -24 -1 -31 17 -17 42 -1 42 27 0 31 -25 34
-41 4z"/>
<path d="M3490 7274 c-20 -9 -48 -13 -65 -10 -42 8 -75 -16 -75 -55 0 -22 5
-29 20 -29 11 0 29 -6 40 -12 17 -11 25 -10 48 4 15 9 48 29 75 43 86 46 48
99 -43 59z"/>
<path d="M2570 7010 c-23 -27 -36 -50 -30 -50 18 0 80 65 80 84 0 24 -4 21
-50 -34z"/>
<path d="M2482 6908 c-18 -22 -31 -42 -29 -44 2 -2 18 3 36 12 31 15 54 50 44
67 -8 13 -18 6 -51 -35z"/>
<path d="M2449 6810 c-36 -45 -54 -52 -44 -17 9 28 -51 -52 -122 -168 -103
-164 -213 -388 -199 -402 2 -3 16 3 30 12 14 10 26 13 26 7 0 -6 -6 -15 -14
-19 -22 -13 -84 -106 -110 -164 -32 -74 -98 -322 -94 -356 2 -14 8 -28 15 -30
7 -3 14 19 18 64 10 103 18 125 73 196 28 36 53 81 57 99 4 18 13 40 20 48 7
8 21 34 30 58 10 23 23 42 31 42 24 0 54 39 54 69 0 20 8 34 26 46 25 16 27
16 36 0 9 -15 13 -14 42 13 17 16 46 37 64 46 18 10 37 27 41 39 14 37 -7 78
-23 45 -5 -10 -7 -10 -12 0 -3 6 -10 10 -15 6 -13 -8 -11 10 4 28 6 8 36 37
66 64 l54 49 -26 -46 c-32 -54 -36 -85 -9 -74 9 4 37 12 62 19 45 11 45 11 45
56 0 37 -3 44 -17 42 -23 -4 -23 13 1 47 30 42 29 57 -11 94 -27 25 -39 45
-44 76 -4 23 -10 44 -15 46 -4 3 -22 -13 -40 -35z m-69 -311 c0 -6 -5 -7 -10
-4 -6 4 -19 1 -28 -6 -13 -11 -13 -9 2 8 18 22 36 22 36 2z"/>
<path d="M7240 5986 c0 -7 -7 -20 -16 -27 -12 -10 -14 -23 -10 -52 11 -69 38
-99 49 -56 3 12 10 18 16 14 17 -10 14 57 -4 99 -15 36 -35 49 -35 22z"/>
<path d="M1977 5683 c-10 -10 -8 -43 2 -43 9 0 21 24 21 41 0 11 -14 12 -23 2z"/>
<path d="M7109 5634 c-7 -8 -15 -41 -17 -72 -5 -57 -5 -57 16 -39 21 19 47
101 37 118 -9 13 -21 11 -36 -7z"/>
<path d="M1907 5633 c-3 -5 -7 -21 -8 -38 -4 -27 -1 -30 22 -27 19 2 28 -3 37
-23 8 -17 19 -25 29 -23 32 6 26 39 -13 79 -37 38 -58 47 -67 32z"/>
<path d="M2031 5524 c-28 -35 -26 -48 7 -60 41 -16 72 -1 72 34 0 55 -45 70
-79 26z"/>
<path d="M2125 5501 c-3 -11 -2 -28 3 -36 8 -15 10 -15 21 -1 15 17 11 48 -6
53 -6 2 -14 -5 -18 -16z"/>
<path d="M1950 5445 c0 -28 15 -34 24 -9 10 25 7 34 -9 34 -9 0 -15 -9 -15
-25z"/>
<path d="M7127 5404 c-4 -4 -7 -15 -7 -25 0 -10 -7 -34 -17 -53 -15 -33 -15
-38 2 -81 17 -45 17 -48 -1 -86 -13 -29 -14 -43 -6 -51 8 -8 15 0 28 31 9 23
25 46 35 52 25 13 24 37 -1 64 -17 18 -18 26 -10 55 6 19 10 42 10 51 0 21
-24 52 -33 43z"/>
<path d="M1873 5330 c0 -30 2 -43 4 -27 2 15 2 39 0 55 -2 15 -4 2 -4 -28z"/>
<path d="M2013 5295 c-10 -7 -28 -32 -38 -54 -20 -44 -29 -50 -43 -25 -8 14
-10 14 -26 -1 -18 -19 -18 -19 -34 10 -10 17 -11 13 -12 -26 0 -33 5 -51 19
-63 18 -17 20 -16 27 6 l8 23 7 -25 c16 -56 9 -130 -16 -179 -23 -47 -24 -53
-14 -138 11 -104 25 -155 80 -297 27 -68 54 -120 78 -148 21 -24 45 -57 54
-75 16 -29 54 -184 78 -311 5 -30 18 -71 28 -91 11 -20 24 -63 30 -95 11 -62
62 -154 106 -196 15 -14 36 -43 47 -65 29 -57 90 -135 105 -135 8 0 16 -6 19
-14 3 -7 48 -35 100 -62 85 -43 104 -49 172 -52 42 -2 74 -1 70 3 -3 3 -38 15
-77 25 -98 25 -121 41 -121 86 0 32 -4 37 -40 51 -37 15 -40 19 -40 54 0 29
-6 42 -27 58 l-28 20 25 -6 c21 -5 23 -3 13 8 -21 22 -15 29 23 29 35 0 36 1
32 33 -3 17 -8 40 -13 50 -5 13 -4 16 9 11 20 -8 39 39 33 81 -2 17 2 35 9 43
18 18 18 64 -1 109 -12 28 -13 39 -3 50 17 21 64 43 92 43 22 0 26 6 33 48 11
67 7 159 -10 214 -14 43 -13 50 4 80 42 76 51 105 52 164 1 71 -23 120 -68
144 -17 8 -36 24 -44 34 -33 45 -53 58 -79 53 -20 -4 -35 5 -72 39 -26 24 -56
44 -67 44 -25 0 -53 40 -53 74 0 14 -4 28 -10 31 -5 3 -19 27 -30 53 -27 61
-46 80 -86 88 -24 4 -36 14 -45 35 -6 17 -21 36 -31 44 -17 11 -19 20 -13 54
4 25 3 41 -3 41 -6 0 -12 -6 -15 -12 -3 -10 -7 -10 -20 0 -11 9 -21 11 -33 4
-21 -12 -55 -4 -71 16 -11 13 -15 13 -30 1 -15 -12 -16 -12 -10 3 8 24 -6 30
-30 13z"/>
<path d="M7172 5150 c-6 -19 -11 -29 -11 -21 -2 28 -31 -11 -31 -41 0 -21 6
-31 20 -35 11 -3 20 -10 20 -16 0 -6 -3 -7 -7 -4 -9 10 -43 -23 -43 -42 0 -9
12 -29 26 -45 23 -26 27 -27 41 -13 20 19 22 87 4 121 -13 23 -12 28 2 44 21
23 21 42 3 67 -13 19 -15 18 -24 -15z"/>
<path d="M7031 4943 c-27 -66 -80 -133 -116 -146 -15 -7 -17 -17 -13 -85 7
-100 20 -128 66 -137 43 -8 62 11 62 61 0 18 11 55 24 84 20 43 22 57 14 86
-7 28 -6 41 7 61 12 18 14 28 6 36 -6 6 -11 24 -11 39 0 37 -24 37 -39 1z"/>
<path d="M7202 4778 c-19 -61 -23 -88 -13 -88 14 0 43 102 32 113 -5 5 -13 -5
-19 -25z"/>
<path d="M7127 4769 c-9 -5 -21 -8 -26 -5 -5 3 -12 -1 -15 -10 -13 -35 3 -60
30 -46 11 6 27 13 37 16 12 4 17 14 15 28 -4 26 -17 31 -41 17z"/>
<path d="M7220 4696 c0 -19 4 -37 10 -41 6 -4 6 -15 0 -31 -14 -35 -13 -41 10
-47 30 -8 46 -52 32 -89 -9 -24 -8 -33 3 -45 8 -8 15 -20 16 -26 1 -24 21 40
44 142 13 57 21 109 19 116 -6 16 -47 27 -68 19 -9 -3 -20 3 -28 15 -20 32
-38 26 -38 -13z"/>
<path d="M7071 4663 c-18 -39 -26 -113 -12 -113 6 0 11 5 11 10 0 6 5 10 10
10 6 0 10 -13 10 -30 0 -19 5 -30 14 -30 10 0 16 17 19 63 2 34 6 71 8 81 3
14 -3 21 -22 26 -23 6 -29 4 -38 -17z"/>
<path d="M7113 4458 c-14 -17 -34 -90 -27 -97 8 -9 43 38 50 66 8 29 -8 50
-23 31z"/>
<path d="M7026 4395 c-8 -31 2 -54 15 -34 11 18 11 59 0 59 -5 0 -12 -11 -15
-25z"/>
<path d="M7180 4349 c0 -5 -4 -8 -9 -5 -5 3 -12 -5 -15 -19 -3 -13 -11 -37
-17 -52 -9 -25 -11 -26 -20 -10 -14 24 -25 15 -48 -39 -11 -24 -27 -47 -35
-50 -8 -3 -21 -23 -30 -44 -10 -26 -27 -45 -48 -56 -69 -35 -128 -107 -128
-158 0 -14 -8 -47 -19 -73 -10 -26 -21 -73 -25 -104 -5 -41 -14 -63 -32 -80
-14 -13 -24 -34 -24 -51 0 -34 10 -35 47 -4 15 13 38 26 51 30 12 4 34 23 48
42 15 19 32 34 39 34 7 0 23 9 37 20 19 14 28 16 36 8 7 -7 13 -10 16 -7 15
16 114 205 158 299 45 100 53 124 54 185 2 39 6 85 10 104 6 29 4 33 -10 28
-9 -4 -16 -2 -16 3 0 6 -4 10 -10 10 -5 0 -10 -5 -10 -11z"/>
<path d="M5380 4246 c-6 -8 -21 -34 -33 -58 -14 -28 -36 -51 -61 -65 -53 -29
-61 -45 -43 -96 10 -29 11 -50 5 -67 -8 -22 -1 -81 18 -147 4 -16 48 -27 78
-19 30 7 49 58 96 249 24 98 21 150 -12 192 -22 29 -31 31 -48 11z"/>
</g>
</svg>
